<svg width="1170" height="475" viewBox="0 0 1170 475" fill="none" xmlns="http://www.w3.org/2000/svg">
<path d="M163.668 123L36.668 468H163.668L286.168 123H566.668L548.668 156H442.668C311.868 182.4 315.835 278 334.168 322.5L474.168 474.5H908.668C978.668 473.3 1042.17 382.667 1065.17 337.5C1129.57 207.9 1068 162.5 1029.17 156H821.168L829.168 123H1129.67L1169.17 0.5H850.668C764.668 10.9 713.501 106.167 698.668 152.5C655.068 242.1 716.835 276.833 753.168 283H958.168L931.668 347.5H548.668L490.668 283C589.468 283 646.501 221.333 662.668 190.5C740.668 38.5 668.501 0.5 622.668 0.5H36.668L0.667969 123H163.668Z" fill="#FFFEFE" stroke="black"/>
</svg>
