<svg width="28" height="28" viewBox="0 0 28 28" fill="none" xmlns="http://www.w3.org/2000/svg">
<circle cx="14" cy="14" r="14" transform="matrix(1 0 0 -1 0 28)" fill="#005ABE"/>
<path d="M14.0518 16C16.537 16 18.5518 13.9853 18.5518 11.5C18.5518 9.01472 16.537 7 14.0518 7C11.5665 7 9.55176 9.01472 9.55176 11.5C9.55176 13.9853 11.5665 16 14.0518 16Z" stroke="white" stroke-linecap="round" stroke-linejoin="round"/>
<path d="M14.0518 13.5C15.1563 13.5 16.0518 12.6046 16.0518 11.5C16.0518 10.3954 15.1563 9.5 14.0518 9.5C12.9472 9.5 12.0518 10.3954 12.0518 11.5C12.0518 12.6046 12.9472 13.5 14.0518 13.5Z" stroke="white" stroke-linecap="round" stroke-linejoin="round"/>
<path d="M13.182 15.92L12.302 19.62C12.2846 19.6903 12.2524 19.7561 12.2076 19.813C12.1628 19.8699 12.1063 19.9166 12.042 19.95C11.9742 19.9795 11.901 19.9946 11.827 19.9946C11.7531 19.9946 11.6799 19.9795 11.612 19.95L8.29202 18.5C8.22239 18.4671 8.16111 18.4188 8.11279 18.3588C8.06448 18.2988 8.03038 18.2287 8.01306 18.1536C7.99574 18.0786 7.99565 18.0005 8.01279 17.9254C8.02993 17.8503 8.06385 17.7801 8.11202 17.72L10.682 14.5" stroke="white" stroke-linecap="round" stroke-linejoin="round"/>
<path d="M15.1816 15.8696L16.0816 19.6196C16.0995 19.6911 16.133 19.7577 16.1797 19.8148C16.2264 19.8718 16.2851 19.9179 16.3516 19.9496C16.4176 19.9794 16.4892 19.9948 16.5616 19.9948C16.6341 19.9948 16.7056 19.9794 16.7716 19.9496L20.0716 18.4996C20.1423 18.467 20.2044 18.4185 20.2531 18.3577C20.3017 18.2969 20.3354 18.2257 20.3516 18.1496C20.3706 18.0751 20.3714 17.9972 20.354 17.9224C20.3366 17.8476 20.3015 17.778 20.2516 17.7196L17.5716 14.3096" stroke="white" stroke-linecap="round" stroke-linejoin="round"/>
</svg>
